<?xml version="1.0" encoding="UTF-8"?>
<svg xmlns="http://www.w3.org/2000/svg" id="Layer_1" data-name="Layer 1" viewBox="0 0 24 24">
    <path
        d="M22.692,12.514c-.203-.086-.436-.027-.576,.14-1.086,1.298-2.877,1.902-5.637,1.902-4.998,0-7.037-2.038-7.037-7.033,0-2.694,.621-4.538,1.899-5.638,.165-.142,.219-.374,.134-.575-.086-.2-.293-.313-.507-.302C5.285,1.548,1,6.263,1,11.976c0,6.075,4.945,11.019,11.023,11.019,5.721,0,10.439-4.287,10.975-9.973,.021-.218-.104-.424-.306-.508Zm-10.669,9.48c-5.527,0-10.023-4.494-10.023-10.019C2,7.241,5.236,3.261,9.721,2.222c-.858,1.28-1.278,3.03-1.278,5.301,0,7.12,4.295,8.033,8.037,8.033,2.314,0,4.038-.406,5.301-1.263-1.046,4.475-5.024,7.701-9.757,7.701Z" />
</svg>
